<svg width="161" height="40" viewBox="0 0 161 40" fill="none" xmlns="http://www.w3.org/2000/svg">
<path fill-rule="evenodd" clip-rule="evenodd" d="M19.7778 36.8889C28.9498 36.8889 36.4444 29.3603 36.4444 20C36.4444 17.5474 35.9299 15.2205 35.0055 13.1219C36.0417 12.8543 36.9803 12.3438 37.7568 11.6547C38.9116 14.1946 39.5556 17.0213 39.5556 20C39.5556 31.0457 30.7007 40 19.7778 40C8.85481 40 0 31.0457 0 20C0 8.9543 8.85481 0 19.7778 0C22.9161 0 25.8836 0.73916 28.5195 2.05471C27.7992 2.80645 27.2531 3.72659 26.9464 4.75017C24.7724 3.69889 22.3406 3.11111 19.7778 3.11111C10.6057 3.11111 3.11111 10.6397 3.11111 20C3.11111 29.3603 10.6057 36.8889 19.7778 36.8889ZM33.3336 8.44448C34.3155 8.44448 35.1114 7.64854 35.1114 6.66671C35.1114 5.68486 34.3155 4.88893 33.3336 4.88893C32.3518 4.88893 31.5558 5.68486 31.5558 6.66671C31.5558 7.64854 32.3518 8.44448 33.3336 8.44448ZM19.7781 30.6667C25.4989 30.6667 30.2225 25.9389 30.2225 20C30.2225 14.0611 25.4989 9.33333 19.7781 9.33333C14.0573 9.33333 9.33364 14.0611 9.33364 20C9.33364 25.9389 14.0573 30.6667 19.7781 30.6667ZM19.7781 33.7778C27.2646 33.7778 33.3336 27.6093 33.3336 20C33.3336 12.3907 27.2646 6.22222 19.7781 6.22222C12.2916 6.22222 6.22252 12.3907 6.22252 20C6.22252 27.6093 12.2916 33.7778 19.7781 33.7778ZM18.1482 17.1435C18.7001 16.7723 19.3446 16.5768 20.0003 16.5768V13.7778C18.7606 13.7778 17.5521 14.148 16.528 14.8367C15.5043 15.5251 14.7125 16.4993 14.2464 17.6317C13.7805 18.7637 13.6592 20.0073 13.8962 21.2066L16.7048 20.6752C16.572 20.0035 16.6405 19.3076 16.8999 18.6772C17.1592 18.0472 17.5958 17.5149 18.1482 17.1435ZM23.3619 20C23.3619 20.6857 23.1597 21.3529 22.7852 21.917C22.411 22.4807 21.8833 22.9139 21.2735 23.1681C20.6642 23.4221 19.9962 23.4879 19.3522 23.359L18.7788 26.1012C19.9938 26.3444 21.2528 26.2192 22.3947 25.7431C23.5362 25.2673 24.5052 24.4643 25.1841 23.4418C25.8627 22.4197 26.2225 21.222 26.2225 20H23.3619Z" fill="#F86F2D"/>
<path d="M161 11.5C161 12.8807 159.881 14 158.5 14C157.119 14 156 12.8807 156 11.5C156 10.1193 157.119 9 158.5 9C159.881 9 161 10.1193 161 11.5Z" fill="#F86F2D"/>
<path d="M60.7964 31.5932V23.0196C60.7964 21.0795 62.0111 19.8279 63.911 19.8279C65.5617 19.8279 66.6518 21.1108 66.6518 23.0821V31.5932H71.4482V21.9244C71.4482 17.8253 69.2992 15.4472 65.5928 15.4472C63.5684 15.4472 61.7931 16.2295 60.8276 17.575L60.5161 15.9478H56V31.5932H60.7964Z" fill="white"/>
<path d="M85.2284 15.9478V24.0834C85.2284 26.6493 84.3875 27.7132 82.3319 27.7132C80.3697 27.7132 79.4976 26.5867 79.4976 24.0209V15.9478H74.7012V25.7731C74.7012 29.6219 76.8814 32 80.432 32C82.3007 32 84.2318 31.1239 85.1973 29.8409L85.5087 31.5932H90.0248V15.9478H85.2284Z" fill="white"/>
<path d="M98.1402 31.5932L98.3894 29.5906C99.2303 31.03 101.099 32 103.279 32C107.702 32 110.785 28.7771 110.785 23.927C110.785 18.8266 108.013 15.4159 103.653 15.4159C101.41 15.4159 99.3549 16.3546 98.4205 17.7627V8H93.6241V31.5932H98.1402ZM98.4517 23.6767C98.4517 21.3299 100.009 19.7653 102.251 19.7653C104.525 19.7653 105.958 21.3611 105.958 23.6767C105.958 25.9922 104.525 27.588 102.251 27.588C100.009 27.588 98.4517 26.0235 98.4517 23.6767Z" fill="white"/>
<path d="M118.062 31.5932L118.312 29.5906C119.153 31.03 121.021 32 123.201 32C127.624 32 130.708 28.7771 130.708 23.927C130.708 18.8266 127.936 15.4159 123.575 15.4159C121.333 15.4159 119.277 16.3546 118.343 17.7627V8H113.546V31.5932H118.062ZM118.374 23.6767C118.374 21.3299 119.931 19.7653 122.174 19.7653C124.447 19.7653 125.88 21.3611 125.88 23.6767C125.88 25.9922 124.447 27.588 122.174 27.588C119.931 27.588 118.374 26.0235 118.374 23.6767Z" fill="white"/>
<path d="M138.265 31.5932V8H133.469V31.5932H138.265Z" fill="white"/>
<path d="M149.089 32C153.356 32 156.439 29.7784 157 26.3051H152.608C152.266 27.4316 150.989 28.0887 149.182 28.0887C147.065 28.0887 145.912 27.1186 145.632 25.0535L156.938 24.9909V23.7705C156.938 18.6701 153.885 15.4472 148.996 15.4472C144.293 15.4472 141.022 18.8579 141.022 23.7392C141.022 28.558 144.386 32 149.089 32ZM149.027 19.3585C150.958 19.3585 152.172 20.4224 152.172 22.0808H145.694C146.068 20.2034 147.127 19.3585 149.027 19.3585Z" fill="white"/>
</svg>
